<svg>
<path xmlns="http://www.w3.org/2000/svg" class="st0" d="M145.5,21.6c-4.1,2.1-10.4,1.8-13.6-1.7c-1.9-2.2-2.9-5-2.8-7.9c-0.1-3.2,1-6.2,3.2-8.5c2.1-2.2,5-3.4,8.1-3.3   c1.8-0.1,3.5,0.2,5.2,0.9V4c-1.6-0.9-3.4-1.3-5.2-1.3c-2.3-0.1-4.4,0.8-6,2.5c-1.6,1.8-2.4,4.2-2.3,6.6c-0.1,2.3,0.7,4.5,2.2,6.3   c2.8,3,8,2.9,11.3,0.8L145.5,21.6L145.5,21.6z"/>
	<!-- <polygon xmlns="http://www.w3.org/2000/svg" class="st0" points="124.8,22.5 122,22.5 122,4.3 110.2,22.5 106.8,22.5 106.8,0.6 109.7,0.6 109.7,18.6 121.3,0.6    124.8,0.6  "/>
	<polygon xmlns="http://www.w3.org/2000/svg" class="st0" points="103.5,3.1 97.1,3.1 97.1,22.5 94.3,22.5 94.3,3.1 88,3.1 88,0.6 103.5,0.6  "/>
	<path xmlns="http://www.w3.org/2000/svg" class="st0" d="M75.3,14.3v8.2h-2.8v-22h6.2c2-0.1,4,0.5,5.5,1.7c1.4,1.3,2.1,3.1,2,4.9c0.1,2-0.8,3.9-2.3,5.2   c-1.6,1.4-3.6,2-5.7,1.9h-2.9V14.3z M75.3,3.1v8.8h2.6c1.4,0.1,2.8-0.3,3.9-1.2c0.9-0.9,1.4-2.1,1.3-3.3c0-2.8-1.7-4.2-5-4.2   L75.3,3.1L75.3,3.1z"/>
	<path xmlns="http://www.w3.org/2000/svg" class="st0" d="M69.3,22.5h-3.1l-2.2-6h-9.1l-2.1,6h-3.1l8.4-22h3L69.3,22.5L69.3,22.5z M63,14L59.3,3.8L55.6,14H63z"/>
	<path xmlns="http://www.w3.org/2000/svg" class="st0" d="M55,34.7h-0.9v-4l-1.5,4h-0.8l-1.6-4v4h-0.7v-5h1.1l1.6,4.1l1.6-4.1H55V34.7z M60.7,32.4h-3.5   c0,0.5,0.1,0.9,0.4,1.2c0.3,0.3,0.7,0.5,1.2,0.4c0.6,0,1.1-0.2,1.5-0.5v0.8c-0.5,0.3-1.1,0.5-1.8,0.5c-0.6,0-1.3-0.2-1.7-0.7   s-0.7-1.2-0.6-1.9c0-0.7,0.3-1.4,0.8-1.9c0.4-0.5,1-0.8,1.7-0.8c0.6,0,1.1,0.2,1.5,0.6c0.4,0.5,0.6,1.2,0.5,1.8L60.7,32.4   L60.7,32.4z M59.8,31.7c0-0.4-0.1-0.7-0.3-1s-0.6-0.4-0.9-0.4c-0.3,0-0.7,0.1-0.9,0.4c-0.3,0.3-0.4,0.6-0.5,1H59.8z M65.8,28   c-0.2,0.1-0.4,0.2-0.6,0.2c-0.5,0.1-1,0.2-1.5,0.3c-0.3,0.1-0.5,0.3-0.7,0.6c-0.2,0.5-0.3,0.9-0.4,1.5l0,0c0.4-0.5,1-0.8,1.7-0.8   c0.6,0,1.2,0.2,1.6,0.7s0.6,1.1,0.6,1.8c0,0.7-0.2,1.3-0.7,1.8c-0.4,0.5-1.1,0.7-1.7,0.7c-0.7,0-1.4-0.3-1.8-0.8   c-0.5-0.7-0.7-1.5-0.6-2.3c0-0.7,0.1-1.3,0.2-2c0.1-0.4,0.3-0.9,0.6-1.2c0.2-0.3,0.5-0.5,0.9-0.6c0.6-0.2,1.1-0.3,1.7-0.4   c0.2,0,0.5-0.1,0.7-0.2V28L65.8,28z M62.5,31.5c-0.1,0.6,0,1.2,0.3,1.8c0.1,0.2,0.3,0.5,0.5,0.6s0.5,0.2,0.7,0.2   c0.4,0,0.8-0.2,1-0.5c0.3-0.4,0.4-0.8,0.4-1.3c0.1-0.5-0.1-0.9-0.3-1.3c-0.3-0.3-0.7-0.5-1.1-0.5C63.4,30.5,62.8,30.9,62.5,31.5   L62.5,31.5z M71.7,32.5h-3.5c0,0.4,0.1,0.9,0.4,1.2s0.7,0.5,1.2,0.4c0.6,0,1.1-0.2,1.5-0.5v0.8c-0.5,0.3-1.1,0.5-1.8,0.5   c-0.6,0-1.3-0.2-1.7-0.7c-0.4-0.5-0.6-1.2-0.6-1.9c0-0.7,0.2-1.4,0.7-1.9c0.4-0.5,1-0.8,1.7-0.8c0.6,0,1.1,0.2,1.5,0.6   c0.4,0.5,0.6,1.1,0.6,1.8L71.7,32.5L71.7,32.5z M70.9,31.7c0-0.4-0.1-0.7-0.3-1c-0.2-0.3-0.6-0.4-0.9-0.4s-0.7,0.1-0.9,0.4   c-0.3,0.3-0.4,0.6-0.5,1H70.9z M76.7,34.7h-0.9v-4.3h-1.1c0,1.2-0.3,2.3-0.7,3.4c-0.2,0.6-0.7,1-1.3,1c-0.2,0-0.3,0-0.4-0.1V34   c0.1,0.1,0.2,0.1,0.4,0.1c0.7,0,1.2-1.5,1.4-4.4h2.7L76.7,34.7L76.7,34.7z M78.3,34.7v-5h0.9v1.9h1.3c0.4,0,0.9,0.1,1.2,0.4   c0.3,0.3,0.5,0.7,0.5,1.1c0,0.4-0.1,0.9-0.5,1.2c-0.3,0.3-0.7,0.4-1.2,0.4H78.3z M79.2,32.4V34h1.2c0.7,0,1-0.3,1-0.9   s-0.3-0.8-1-0.8L79.2,32.4z M85.9,34.7v-5h2.3c0.4,0,0.8,0.1,1.2,0.3c0.3,0.2,0.4,0.5,0.4,0.9c0,0.6-0.4,1.1-1,1.2   c0.8,0.1,1.2,0.5,1.2,1.2c0,0.4-0.2,0.8-0.5,1c-0.3,0.3-0.8,0.4-1.2,0.4H85.9z M86.7,30.4v1.4h1.2c0.6,0,0.9-0.2,0.9-0.7   s-0.3-0.6-0.8-0.6L86.7,30.4z M86.7,32.5V34H88c0.6,0,1-0.3,1-0.8s-0.3-0.7-1-0.7H86.7z M91.4,30c0.5-0.3,1.1-0.5,1.7-0.5   c1.2,0,1.8,0.6,1.8,1.9v3.2H94v-0.8c-0.3,0.6-0.9,0.9-1.6,0.9c-0.4,0-0.8-0.1-1.2-0.4c-0.3-0.3-0.4-0.7-0.4-1.1   c0-0.9,0.6-1.5,1.7-1.6l1.5-0.2c0-0.8-0.3-1.2-1-1.2c-0.6,0-1.2,0.2-1.6,0.6V30L91.4,30z M92.9,32.3c-0.3,0-0.6,0.1-0.8,0.3   c-0.2,0.2-0.2,0.4-0.2,0.6c0,0.2,0.1,0.4,0.3,0.6c0.2,0.2,0.4,0.2,0.7,0.2c0.4,0,0.7-0.1,1-0.4c0.2-0.3,0.4-0.6,0.4-1v-0.5   L92.9,32.3L92.9,32.3z M102.9,34.7h-6.5v-5h0.9V34h1.9v-4.3h0.9V34h1.9v-4.3h0.9L102.9,34.7L102.9,34.7z M108.5,32.4H105   c0,0.5,0.1,0.9,0.4,1.2s0.7,0.5,1.2,0.4c0.6,0,1.1-0.2,1.6-0.5v0.8c-0.5,0.3-1.1,0.5-1.8,0.5c-0.6,0-1.3-0.2-1.7-0.7   c-0.4-0.5-0.7-1.2-0.6-1.9c0-0.7,0.2-1.4,0.7-1.9c0.4-0.5,1-0.8,1.7-0.8c0.6,0,1.1,0.2,1.5,0.6c0.4,0.5,0.6,1.1,0.6,1.8L108.5,32.4   L108.5,32.4z M107.6,31.7c0-0.4-0.1-0.7-0.3-1c-0.2-0.3-0.6-0.4-0.9-0.4s-0.7,0.1-0.9,0.4c-0.3,0.3-0.4,0.6-0.5,1H107.6z    M112.5,30.4h-2v4.3h-0.9v-5h2.8L112.5,30.4L112.5,30.4z M113.2,32.2c-0.1-0.7,0.2-1.5,0.7-2s1.2-0.8,1.9-0.7   c0.7,0,1.3,0.2,1.8,0.7c0.9,1.1,0.9,2.7,0,3.8c-1,1-2.6,1-3.6,0C113.5,33.5,113.2,32.8,113.2,32.2L113.2,32.2z M114.1,32.2   c0,0.5,0.1,1,0.4,1.4c0.3,0.3,0.7,0.5,1.2,0.5c0.4,0,0.9-0.2,1.2-0.5c0.5-0.9,0.5-1.9,0-2.8c-0.3-0.3-0.7-0.5-1.2-0.5   s-0.9,0.2-1.2,0.5C114.3,31.2,114.1,31.7,114.1,32.2z M125.4,34.5c-1,0.6-2.3,0.4-3.1-0.4c-0.5-0.5-0.7-1.1-0.7-1.8   c0-0.7,0.2-1.5,0.7-2s1.2-0.8,1.9-0.8c0.4,0,0.8,0.1,1.2,0.2v0.9c-0.3-0.3-0.8-0.4-1.2-0.4c-0.5,0-0.9,0.2-1.2,0.5   c-0.3,0.4-0.5,0.9-0.5,1.4s0.1,1,0.4,1.4c0.7,0.6,1.7,0.7,2.4,0.1L125.4,34.5L125.4,34.5z M129.8,30.5h-1.5v4.3h-0.9v-4.3h-1.5   v-0.7h3.9V30.5L129.8,30.5z M135,34.7h-0.8v-3.8l-2.6,3.8h-0.9v-5h0.8v3.7l2.6-3.7h0.9V34.7z M140.4,34.7h-0.9v-4.3h-1.1   c0,1.2-0.3,2.3-0.7,3.4c-0.2,0.6-0.7,1-1.4,1c-0.1,0-0.3,0-0.4-0.1V34c0.1,0.1,0.2,0.1,0.4,0.1c0.7,0,1.2-1.5,1.4-4.4h2.8   L140.4,34.7L140.4,34.7z M145.5,34.7h-0.9v-2H144c-0.3,0-0.6,0.3-0.9,0.8l-0.6,1.3h-1l0.8-1.5c0.1-0.3,0.4-0.6,0.7-0.7   c-0.3,0-0.7-0.2-0.9-0.4s-0.3-0.6-0.3-0.9c0-0.4,0.2-0.8,0.5-1.1c0.4-0.3,0.9-0.4,1.4-0.4h1.8V34.7L145.5,34.7z M144.6,32v-1.6   h-0.9c-0.7,0-1,0.3-1,0.8s0.3,0.8,1,0.8H144.6z"/> -->
	<path fill="rgb(44, 62, 80)" xmlns="http://www.w3.org/2000/svg" class="st0" d="M3.7,0.6h11.6c0.6,0,1.1,0.2,1.6,0.6c0.4,0.4,0.6,1,0.6,1.6v11.6c0,0.6-0.2,1.1-0.6,1.6l0,0   c-0.4,0.4-1,0.7-1.6,0.6H3.7c-0.6,0-1.1-0.2-1.5-0.6l0,0c-0.4-0.4-0.6-1-0.6-1.6V2.8c0-0.6,0.2-1.1,0.6-1.6   C2.6,0.8,3.1,0.6,3.7,0.6z M15.3,1.2H3.7c-0.4,0-0.8,0.2-1.1,0.5C2.3,1.9,2.1,2.3,2.1,2.8v11.6c0,0.4,0.2,0.8,0.5,1.1l0,0   C2.9,15.8,3.3,16,3.7,16h11.6c0.4,0,0.8-0.2,1.1-0.5l0,0c0.3-0.3,0.5-0.7,0.5-1.1V2.8c0-0.4-0.2-0.8-0.5-1.1S15.7,1.2,15.3,1.2z"/>
	<path fill="rgb(44, 62, 80)" xmlns="http://www.w3.org/2000/svg" class="st1" d="M3.5,18.7h12.1c1.1,0,2,0.9,2,2l0,0v12c0,1.1-0.9,2-2,2H3.5c-1.1,0-2-0.9-2-2v-12C1.5,19.5,2.4,18.7,3.5,18.7   L3.5,18.7z"/>
	<path fill="rgb(44, 62, 80)" xmlns="http://www.w3.org/2000/svg" class="st1" d="M21.6,0.6h12.1c1.1,0,2,0.9,2,2v12.1c0,1.1-0.9,2-2,2H21.6c-1.1,0-2-0.9-2-2V2.5C19.6,1.4,20.5,0.6,21.6,0.6z"/>
	<path fill="rgb(44, 62, 80)" xmlns="http://www.w3.org/2000/svg" class="st1" d="M21.6,18.7h12.1c1.1,0,2,0.9,2,2v12c0,1.1-0.9,2-2,2H21.6c-1.1,0-2-0.9-2-2v-12C19.6,19.5,20.5,18.7,21.6,18.7   L21.6,18.7z"/>
</svg>
	